<?xml version="1.0" standalone="no"?>
<!DOCTYPE svg PUBLIC "-//W3C//DTD SVG 20010904//EN"
 "http://www.w3.org/TR/2001/REC-SVG-20010904/DTD/svg10.dtd">
<svg version="1.0" xmlns="http://www.w3.org/2000/svg"
 width="256.000000pt" height="256.000000pt" viewBox="0 0 256.000000 256.000000"
 preserveAspectRatio="xMidYMid meet">

<g transform="translate(0.000000,256.000000) scale(0.100000,-0.100000)"
fill="#6d2177" stroke="none">
<path d="M0 1280 l0 -1280 1280 0 1280 0 0 1280 0 1280 -1280 0 -1280 0 0
-1280z m1970 630 l0 -190 -480 0 -480 0 0 -130 0 -130 475 0 475 0 0 -185 0
-185 -475 0 -475 0 0 -135 0 -135 480 0 480 0 0 -190 0 -190 -665 0 -665 0 0
350 0 350 160 0 160 0 0 135 0 135 -165 0 -165 0 0 345 0 345 670 0 670 0 0
-190z"/>
<path d="M680 1755 l0 -295 140 0 140 0 0 155 0 155 480 0 480 0 0 140 0 140
-620 0 -620 0 0 -295z"/>
<path d="M1010 1275 l0 -135 450 0 450 0 0 135 0 135 -450 0 -450 0 0 -135z"/>
<path d="M690 790 l0 -300 615 0 615 0 0 140 0 140 -480 0 -480 0 0 160 0 160
-135 0 -135 0 0 -300z"/>
</g>
</svg>
